<?xml version="1.0" encoding="utf-8"?>
<!-- Generator: Adobe Illustrator 23.0.1, SVG Export Plug-In . SVG Version: 6.00 Build 0)  -->
<svg version="1.1" id="Layer_1" xmlns="http://www.w3.org/2000/svg" xmlns:xlink="http://www.w3.org/1999/xlink" x="0px" y="0px"
	 viewBox="0 0 800 800" style="enable-background:new 0 0 800 800;" xml:space="preserve">
<style type="text/css">
	.st0{fill:#FFFFFF;}
</style>
<title>ic_fluent_dismiss_28_filled</title>
<desc>Created with Sketch.</desc>
<g>
	<g id="ic_fluent_dismiss_28_filled">
		<path class="st0" d="M90,96.8l3.2-3.6c18.4-18.4,47.5-19.5,67.1-3.2l3.6,3.2L400,329.3L636.1,93.2c19.5-19.5,51.2-19.5,70.7,0
			c19.5,19.5,19.5,51.2,0,70.7L470.7,400l236.1,236.1c18.4,18.4,19.5,47.5,3.2,67.1l-3.2,3.6c-18.4,18.4-47.5,19.5-67.1,3.2
			l-3.6-3.2L400,470.7L163.9,706.8c-19.5,19.5-51.2,19.5-70.7,0c-19.5-19.5-19.5-51.2,0-70.7L329.3,400L93.2,163.9
			C74.8,145.5,73.8,116.4,90,96.8l3.2-3.6L90,96.8z"/>
	</g>
</g>
</svg>
