<svg width="800" height="800" viewBox="0 0 24 24" xmlns="http://www.w3.org/2000/svg"><path d="M3.839 5.857c2.941-3.915 9.03-5.054 13.364-2.36 4.28 2.661 5.854 7.777 4.1 12.578-1.654 4.532-6.015 6.328-9.159 4.048-1.177-.854-1.634-1.925-1.854-3.664l-.106-.988-.045-.397c-.123-.934-.311-1.353-.704-1.572-.536-.298-.893-.305-1.596-.033l-.351.146-.179.078c-1.014.44-1.688.595-2.541.416l-.2-.047-.164-.047c-2.789-.864-3.202-4.647-.565-8.158zm12.928 4.723a1.25 1.25 0 1 0 2.415-.647 1.25 1.25 0 0 0-2.415.647zm.495 3.488a1.25 1.25 0 1 0 2.414-.647 1.25 1.25 0 0 0-2.414.647zm-2.473-6.491a1.25 1.25 0 1 0 2.414-.647 1.25 1.25 0 0 0-2.414.647zm-.029 8.998a1.25 1.25 0 1 0 2.415-.647 1.25 1.25 0 0 0-2.415.647zm-3.497-9.97a1.25 1.25 0 1 0 2.415-.647 1.25 1.25 0 0 0-2.415.647z" fill="#212121" fill-rule="nonzero"/></svg>