<!DOCTYPE svg PUBLIC "-//W3C//DTD SVG 1.1//EN" "http://www.w3.org/Graphics/SVG/1.1/DTD/svg11.dtd">
<!-- Uploaded to: SVG Repo, www.svgrepo.com, Transformed by: SVG Repo Mixer Tools -->
<svg width="800px" height="800px" viewBox="0 0 24 24" fill="none" xmlns="http://www.w3.org/2000/svg">
<g id="SVGRepo_bgCarrier" stroke-width="0"/>
<g id="SVGRepo_tracerCarrier" stroke-linecap="round" stroke-linejoin="round"/>
<g id="SVGRepo_iconCarrier"> <g id="Interface / Drag_Horizontal"> <g id="Vector"> <path d="M18 14C17.4477 14 17 14.4477 17 15C17 15.5523 17.4477 16 18 16C18.5523 16 19 15.5523 19 15C19 14.4477 18.5523 14 18 14Z" stroke="#ffffff" stroke-width="2" stroke-linecap="round" stroke-linejoin="round"/> <path d="M12 14C11.4477 14 11 14.4477 11 15C11 15.5523 11.4477 16 12 16C12.5523 16 13 15.5523 13 15C13 14.4477 12.5523 14 12 14Z" stroke="#ffffff" stroke-width="2" stroke-linecap="round" stroke-linejoin="round"/> <path d="M6 14C5.44772 14 5 14.4477 5 15C5 15.5523 5.44772 16 6 16C6.55228 16 7 15.5523 7 15C7 14.4477 6.55228 14 6 14Z" stroke="#ffffff" stroke-width="2" stroke-linecap="round" stroke-linejoin="round"/> <path d="M18 8C17.4477 8 17 8.44772 17 9C17 9.55228 17.4477 10 18 10C18.5523 10 19 9.55228 19 9C19 8.44772 18.5523 8 18 8Z" stroke="#ffffff" stroke-width="2" stroke-linecap="round" stroke-linejoin="round"/> <path d="M12 8C11.4477 8 11 8.44772 11 9C11 9.55228 11.4477 10 12 10C12.5523 10 13 9.55228 13 9C13 8.44772 12.5523 8 12 8Z" stroke="#ffffff" stroke-width="2" stroke-linecap="round" stroke-linejoin="round"/> <path d="M6 8C5.44772 8 5 8.44772 5 9C5 9.55228 5.44772 10 6 10C6.55228 10 7 9.55228 7 9C7 8.44772 6.55228 8 6 8Z" stroke="#ffffff" stroke-width="2" stroke-linecap="round" stroke-linejoin="round"/> </g> </g> </g>
</svg>