<svg xmlns="http://www.w3.org/2000/svg" viewBox="0 0 78 78">
  <defs>
    <style>
      .cls-1 {
        fill: #79b7e7;
      }
    </style>
  </defs>
  <title>ff</title>
  <g id="Layer_2" data-name="Layer 2">
    <g id="Layer_1-2" data-name="Layer 1">
      <path class="cls-1" d="M39,0A39,39,0,1,0,78,39,39,39,0,0,0,39,0ZM61.72,41.46,46.72,52A3,3,0,0,1,42,49.5V39a3,3,0,0,1-1.28,2.46L25.72,52A3,3,0,0,1,21,49.5v-21A3,3,0,0,1,25.72,26l15,10.5A3,3,0,0,1,42,39V28.5A3,3,0,0,1,46.72,26l15,10.5a3,3,0,0,1,.74,4.18A3.06,3.06,0,0,1,61.72,41.46Z"/>
    </g>
  </g>
</svg>
