<?xml version="1.0" encoding="utf-8"?>
<!-- Generator: Adobe Illustrator 23.0.1, SVG Export Plug-In . SVG Version: 6.00 Build 0)  -->
<svg version="1.1" id="Layer_1" xmlns="http://www.w3.org/2000/svg" xmlns:xlink="http://www.w3.org/1999/xlink" x="0px" y="0px"
	 viewBox="0 0 800 800" style="enable-background:new 0 0 800 800;" xml:space="preserve">
<style type="text/css">
	.st0{fill:#212121;}
	.st1{display:none;fill:#212121;}
	.st2{fill:none;stroke:#212121;stroke-width:50;stroke-linecap:round;stroke-miterlimit:10;}
</style>
<title>ic_fluent_font_decrease_24_regular</title>
<desc>Created with Sketch.</desc>
<g>
	<g id="ic_fluent_font_decrease_24_regular">
		<path class="st0" d="M548.3,566l-125-316.6l-1.7-3.5l-2.1-3.1c-11.3-14.2-35.4-12-42.7,6.6L251.8,566l-1,3.2
			c-2.9,12,3.3,24.5,15.1,29.2l3.2,1c12,2.9,24.5-3.3,29.2-15.1l33.3-84.2h137l33.3,84.2l1.5,3.1c6,10.7,19.2,15.6,31,11
			C547,593.4,553.3,578.8,548.3,566z M351.2,450.2L400,326.7l48.8,123.5H351.2z"/>
		<path class="st1" d="M695.9,111.2c6.9,10.5,5,24.2-4.1,32.4l-2.9,2.3l-75,49.9c-7.3,4.9-16.6,5.5-24.4,1.8l-3.3-1.8l-75-49.9
			c-11.5-7.6-14.6-23.2-7-34.7c6.9-10.5,20.4-14,31.4-8.8l3.2,1.8l61.2,40.6l61.2-40.6C672.7,96.6,688.2,99.7,695.9,111.2z"/>
	</g>
</g>
<line class="st2" x1="531.5" y1="151.3" x2="668.6" y2="151.3"/>
</svg>
