<svg width="800" height="800" viewBox="0 0 24 24" xmlns="http://www.w3.org/2000/svg"><path d="M7.25 4.5h3.5a.75.75 0 0 1 .101 1.493L10.75 6h-3.5a2.249 2.249 0 0 0-2.241 2.06L5 8.22l.003 8.53A2.25 2.25 0 0 0 7.1 18.995l.154.005 8.498-.012a2.25 2.25 0 0 0 2.241-2.096l.006-.154v-3.506a.75.75 0 0 1 1.493-.102l.007.102v3.506a3.75 3.75 0 0 1-3.546 3.745l-.2.005-8.495.012-.203-.005a3.75 3.75 0 0 1-3.547-3.545l-.005-.2-.002-8.497.004-.203a3.75 3.75 0 0 1 3.546-3.545l.2-.005h3.498H7.25zM14.004 3l6.05.001.1.01.081.017.108.032.119.052.052.03c.26.155.443.424.48.738l.008.12v6.007a1 1 0 0 1-1.994.117l-.006-.117L19 6.413l-6.294 6.294a1 1 0 0 1-1.32.083l-.094-.083a1 1 0 0 1-.083-1.32l.083-.094L17.585 5h-3.581a1 1 0 0 1-.994-.883L13.004 4a1 1 0 0 1 1-1z" fill="#212121" fill-rule="nonzero"/></svg>