<svg xmlns="http://www.w3.org/2000/svg" viewBox="0 0 78 75">
  <defs>
    <style>
      .cls-1 {
        fill: #484848;
      }
    </style>
  </defs>
  <title>palette</title>
  <g id="Layer_2" data-name="Layer 2">
    <g id="Layer_1-2" data-name="Layer 1">
      <path class="cls-1" d="M66.29,11.21A38.73,38.73,0,0,0,39,0h-.4A39,39,0,0,0,0,39C0,55.13,10,68.65,26,74.31A12,12,0,0,0,42,63a6,6,0,0,1,6-6H65.33A11.93,11.93,0,0,0,77,47.67,38.9,38.9,0,0,0,66.29,11.21ZM22.5,54A4.5,4.5,0,1,1,27,49.5,4.49,4.49,0,0,1,22.5,54Zm0-21A4.5,4.5,0,1,1,27,28.5,4.49,4.49,0,0,1,22.5,33ZM39,24a4.5,4.5,0,1,1,4.5-4.5A4.49,4.49,0,0,1,39,24Zm16.5,9A4.5,4.5,0,1,1,60,28.5,4.49,4.49,0,0,1,55.5,33Z"/>
    </g>
  </g>
</svg>
