<?xml version="1.0" encoding="utf-8"?>
<!-- Uploaded to: SVG Repo, www.svgrepo.com, Generator: SVG Repo Mixer Tools -->
<svg width="800px" height="800px" viewBox="0 0 24 24" fill="none" xmlns="http://www.w3.org/2000/svg">
<g clip-path="url(#clip0_429_11098)">
<path d="M5 7C5 5.89543 5.89543 5 7 5H8C9.10457 5 10 5.89543 10 7V17C10 18.1046 9.10457 19 8 19H7C5.89543 19 5 18.1046 5 17V7Z" stroke="#292929" stroke-width="2.5" stroke-linejoin="round"/>
<path d="M14 7C14 5.89543 14.8954 5 16 5H17C18.1046 5 19 5.89543 19 7V17C19 18.1046 18.1046 19 17 19H16C14.8954 19 14 18.1046 14 17V7Z" stroke="#292929" stroke-width="2.5" stroke-linejoin="round"/>
</g>
<defs>
<clipPath id="clip0_429_11098">
<rect width="24" height="24" fill="white"/>
</clipPath>
</defs>
</svg>