<svg xmlns="http://www.w3.org/2000/svg" viewBox="0 0 78 78">
  <defs>
    <style>
      .cls-1 {
        fill: #fcc419;
      }
    </style>
  </defs>
  <title>pin</title>
  <g id="Layer_2" data-name="Layer 2">
    <g id="Layer_1-2" data-name="Layer 1">
      <path class="cls-1" d="M76.24,33l-20,20.11c1.71,4.76,2.42,12.71-4.95,22.5A6,6,0,0,1,46.87,78h-.43a6,6,0,0,1-4.24-1.76L24.1,58.12l-16,16a3,3,0,0,1-4.24-4.25l16-16L1.75,35.77a6,6,0,0,1,0-8.48,4.91,4.91,0,0,1,.48-.43c9.53-7.69,18.66-6.18,22.65-4.93L45,1.76a6,6,0,0,1,8.49,0h0L76.24,24.51A6,6,0,0,1,76.24,33Z"/>
    </g>
  </g>
</svg>
