<svg xmlns="http://www.w3.org/2000/svg" viewBox="0 0 78 78">
  <defs>
    <style>
      .cls-1 {
        fill: #79b7e7;
      }
    </style>
  </defs>
  <title>rewind</title>
  <g id="Layer_2" data-name="Layer 2">
    <g id="Layer_1-2" data-name="Layer 1">
      <path class="cls-1" d="M39,0A39,39,0,1,0,78,39,39,39,0,0,0,39,0ZM57,49.5A3,3,0,0,1,52.28,52l-15-10.5A3,3,0,0,1,36,39V49.5A3,3,0,0,1,31.28,52l-15-10.5a3,3,0,0,1-.74-4.18,3.06,3.06,0,0,1,.74-.74l15-10.5A3,3,0,0,1,36,28.5V39a3,3,0,0,1,1.28-2.46l15-10.5A3,3,0,0,1,57,28.5Z"/>
    </g>
  </g>
</svg>
