<svg xmlns="http://www.w3.org/2000/svg" viewBox="0 0 72 72">
  <defs>
    <style>
      .cls-1 {
        fill: #484848;
      }
    </style>
  </defs>
  <title>text</title>
  <g id="Layer_2" data-name="Layer 2">
    <g id="Layer_1-2" data-name="Layer 1">
      <path class="cls-1" d="M66,0H6A6,6,0,0,0,0,6V66a6,6,0,0,0,6,6H66a6,6,0,0,0,6-6V6A6,6,0,0,0,66,0ZM57,24a3,3,0,0,1-6,0V21H39V54h6a3,3,0,0,1,0,6H27a3,3,0,0,1,0-6h6V21H21v3a3,3,0,0,1-6,0V18a3,3,0,0,1,3-3H54a3,3,0,0,1,3,3Z"/>
    </g>
  </g>
</svg>
